<mxfile host="app.diagrams.net" modified="2024-04-21T17:07:18.799Z" agent="Mozilla/5.0 (Windows NT 10.0; Win64; x64) AppleWebKit/537.36 (KHTML, like Gecko) Chrome/123.0.0.0 Safari/537.36" etag="jLAgsIDOcSYqYWdC9sx5" version="24.2.7" type="device">
  <diagram id="C5RBs43oDa-KdzZeNtuy" name="Page-1">
    <mxGraphModel dx="1374" dy="244" grid="1" gridSize="10" guides="1" tooltips="1" connect="1" arrows="1" fold="1" page="1" pageScale="1" pageWidth="827" pageHeight="1169" math="0" shadow="0">
      <root>
        <mxCell id="WIyWlLk6GJQsqaUBKTNV-0" />
        <mxCell id="WIyWlLk6GJQsqaUBKTNV-1" parent="WIyWlLk6GJQsqaUBKTNV-0" />
        <mxCell id="FuYYxBFJ5jyNKKdTYedB-0" value="Okno aplikacji mobilnej" style="html=1;whiteSpace=wrap;" parent="WIyWlLk6GJQsqaUBKTNV-1" vertex="1">
          <mxGeometry x="360" y="160" width="120" height="40" as="geometry" />
        </mxCell>
        <mxCell id="FuYYxBFJ5jyNKKdTYedB-1" value="Okno aplikacji desktopowej" style="html=1;whiteSpace=wrap;" parent="WIyWlLk6GJQsqaUBKTNV-1" vertex="1">
          <mxGeometry x="-440" y="160" width="120" height="40" as="geometry" />
        </mxCell>
        <mxCell id="FuYYxBFJ5jyNKKdTYedB-2" value="Okno wydarzeń" style="html=1;whiteSpace=wrap;" parent="WIyWlLk6GJQsqaUBKTNV-1" vertex="1">
          <mxGeometry x="165" y="340" width="120" height="40" as="geometry" />
        </mxCell>
        <mxCell id="FuYYxBFJ5jyNKKdTYedB-3" value="Okno logowania" style="html=1;whiteSpace=wrap;" parent="WIyWlLk6GJQsqaUBKTNV-1" vertex="1">
          <mxGeometry x="-310" y="340" width="120" height="40" as="geometry" />
        </mxCell>
        <mxCell id="FuYYxBFJ5jyNKKdTYedB-4" value="Okno logowania" style="html=1;whiteSpace=wrap;" parent="WIyWlLk6GJQsqaUBKTNV-1" vertex="1">
          <mxGeometry x="35" y="340" width="120" height="40" as="geometry" />
        </mxCell>
        <mxCell id="FuYYxBFJ5jyNKKdTYedB-5" value="Okno zgłaszania błędów" style="html=1;whiteSpace=wrap;" parent="WIyWlLk6GJQsqaUBKTNV-1" vertex="1">
          <mxGeometry x="295" y="340" width="120" height="40" as="geometry" />
        </mxCell>
        <mxCell id="FuYYxBFJ5jyNKKdTYedB-6" value="Okno ustawień" style="html=1;whiteSpace=wrap;" parent="WIyWlLk6GJQsqaUBKTNV-1" vertex="1">
          <mxGeometry x="685" y="340" width="120" height="40" as="geometry" />
        </mxCell>
        <mxCell id="FuYYxBFJ5jyNKKdTYedB-7" value="Baza danych" style="html=1;whiteSpace=wrap;" parent="WIyWlLk6GJQsqaUBKTNV-1" vertex="1">
          <mxGeometry x="-120" y="690" width="120" height="40" as="geometry" />
        </mxCell>
        <mxCell id="FuYYxBFJ5jyNKKdTYedB-8" value="Okno zmiany hasła" style="html=1;whiteSpace=wrap;" parent="WIyWlLk6GJQsqaUBKTNV-1" vertex="1">
          <mxGeometry x="555" y="340" width="120" height="40" as="geometry" />
        </mxCell>
        <mxCell id="FuYYxBFJ5jyNKKdTYedB-9" value="Okno listy" style="html=1;whiteSpace=wrap;" parent="WIyWlLk6GJQsqaUBKTNV-1" vertex="1">
          <mxGeometry x="425" y="340" width="120" height="40" as="geometry" />
        </mxCell>
        <mxCell id="FuYYxBFJ5jyNKKdTYedB-23" value="" style="endArrow=diamondThin;endFill=0;endSize=24;html=1;rounded=0;" parent="WIyWlLk6GJQsqaUBKTNV-1" source="FuYYxBFJ5jyNKKdTYedB-40" target="FuYYxBFJ5jyNKKdTYedB-9" edge="1">
          <mxGeometry width="160" relative="1" as="geometry">
            <mxPoint x="110" y="750" as="sourcePoint" />
            <mxPoint x="270" y="750" as="targetPoint" />
          </mxGeometry>
        </mxCell>
        <mxCell id="Uktwysg2pO_e4_kTqGVh-38" value="*" style="edgeLabel;html=1;align=center;verticalAlign=middle;resizable=0;points=[];" parent="FuYYxBFJ5jyNKKdTYedB-23" vertex="1" connectable="0">
          <mxGeometry x="-0.9268" y="-1" relative="1" as="geometry">
            <mxPoint x="-14" y="5" as="offset" />
          </mxGeometry>
        </mxCell>
        <mxCell id="Uktwysg2pO_e4_kTqGVh-39" value="*" style="edgeLabel;html=1;align=center;verticalAlign=middle;resizable=0;points=[];" parent="FuYYxBFJ5jyNKKdTYedB-23" vertex="1" connectable="0">
          <mxGeometry x="0.7712" y="-1" relative="1" as="geometry">
            <mxPoint x="-1" y="-10" as="offset" />
          </mxGeometry>
        </mxCell>
        <mxCell id="FuYYxBFJ5jyNKKdTYedB-25" value="" style="endArrow=block;endSize=16;endFill=0;html=1;rounded=0;" parent="WIyWlLk6GJQsqaUBKTNV-1" source="FuYYxBFJ5jyNKKdTYedB-8" target="FuYYxBFJ5jyNKKdTYedB-0" edge="1">
          <mxGeometry width="160" relative="1" as="geometry">
            <mxPoint x="344" y="750" as="sourcePoint" />
            <mxPoint x="504" y="750" as="targetPoint" />
          </mxGeometry>
        </mxCell>
        <mxCell id="FuYYxBFJ5jyNKKdTYedB-26" value="" style="endArrow=block;endSize=16;endFill=0;html=1;rounded=0;" parent="WIyWlLk6GJQsqaUBKTNV-1" source="FuYYxBFJ5jyNKKdTYedB-4" target="FuYYxBFJ5jyNKKdTYedB-0" edge="1">
          <mxGeometry width="160" relative="1" as="geometry">
            <mxPoint x="354" y="760" as="sourcePoint" />
            <mxPoint x="514" y="760" as="targetPoint" />
          </mxGeometry>
        </mxCell>
        <mxCell id="FuYYxBFJ5jyNKKdTYedB-27" value="" style="endArrow=block;endSize=16;endFill=0;html=1;rounded=0;" parent="WIyWlLk6GJQsqaUBKTNV-1" source="FuYYxBFJ5jyNKKdTYedB-2" target="FuYYxBFJ5jyNKKdTYedB-0" edge="1">
          <mxGeometry width="160" relative="1" as="geometry">
            <mxPoint x="364" y="770" as="sourcePoint" />
            <mxPoint x="524" y="770" as="targetPoint" />
          </mxGeometry>
        </mxCell>
        <mxCell id="FuYYxBFJ5jyNKKdTYedB-28" value="" style="endArrow=block;endSize=16;endFill=0;html=1;rounded=0;" parent="WIyWlLk6GJQsqaUBKTNV-1" source="FuYYxBFJ5jyNKKdTYedB-9" target="FuYYxBFJ5jyNKKdTYedB-0" edge="1">
          <mxGeometry width="160" relative="1" as="geometry">
            <mxPoint x="374" y="780" as="sourcePoint" />
            <mxPoint x="534" y="780" as="targetPoint" />
          </mxGeometry>
        </mxCell>
        <mxCell id="FuYYxBFJ5jyNKKdTYedB-29" value="" style="endArrow=block;endSize=16;endFill=0;html=1;rounded=0;" parent="WIyWlLk6GJQsqaUBKTNV-1" source="FuYYxBFJ5jyNKKdTYedB-5" target="FuYYxBFJ5jyNKKdTYedB-0" edge="1">
          <mxGeometry width="160" relative="1" as="geometry">
            <mxPoint x="384" y="790" as="sourcePoint" />
            <mxPoint x="544" y="790" as="targetPoint" />
          </mxGeometry>
        </mxCell>
        <mxCell id="FuYYxBFJ5jyNKKdTYedB-30" value="" style="endArrow=block;endSize=16;endFill=0;html=1;rounded=0;" parent="WIyWlLk6GJQsqaUBKTNV-1" source="FuYYxBFJ5jyNKKdTYedB-6" target="FuYYxBFJ5jyNKKdTYedB-0" edge="1">
          <mxGeometry width="160" relative="1" as="geometry">
            <mxPoint x="394" y="800" as="sourcePoint" />
            <mxPoint x="554" y="800" as="targetPoint" />
          </mxGeometry>
        </mxCell>
        <mxCell id="FuYYxBFJ5jyNKKdTYedB-31" value="Baza zgłoszeń" style="html=1;whiteSpace=wrap;" parent="WIyWlLk6GJQsqaUBKTNV-1" vertex="1">
          <mxGeometry x="-50" y="550" width="120" height="40" as="geometry" />
        </mxCell>
        <mxCell id="FuYYxBFJ5jyNKKdTYedB-32" value="Baza wydarzeń" style="html=1;whiteSpace=wrap;" parent="WIyWlLk6GJQsqaUBKTNV-1" vertex="1">
          <mxGeometry x="-180" y="550" width="120" height="40" as="geometry" />
        </mxCell>
        <mxCell id="FuYYxBFJ5jyNKKdTYedB-33" value="Baza użytkoników" style="html=1;whiteSpace=wrap;" parent="WIyWlLk6GJQsqaUBKTNV-1" vertex="1">
          <mxGeometry x="-310" y="550" width="120" height="40" as="geometry" />
        </mxCell>
        <mxCell id="FuYYxBFJ5jyNKKdTYedB-34" value="" style="endArrow=block;endSize=16;endFill=0;html=1;rounded=0;" parent="WIyWlLk6GJQsqaUBKTNV-1" source="FuYYxBFJ5jyNKKdTYedB-33" target="FuYYxBFJ5jyNKKdTYedB-7" edge="1">
          <mxGeometry width="160" relative="1" as="geometry">
            <mxPoint x="-61" y="920" as="sourcePoint" />
            <mxPoint x="99" y="920" as="targetPoint" />
          </mxGeometry>
        </mxCell>
        <mxCell id="FuYYxBFJ5jyNKKdTYedB-35" value="" style="endArrow=block;endSize=16;endFill=0;html=1;rounded=0;" parent="WIyWlLk6GJQsqaUBKTNV-1" source="FuYYxBFJ5jyNKKdTYedB-32" target="FuYYxBFJ5jyNKKdTYedB-7" edge="1">
          <mxGeometry width="160" relative="1" as="geometry">
            <mxPoint x="-51" y="930" as="sourcePoint" />
            <mxPoint x="109" y="930" as="targetPoint" />
          </mxGeometry>
        </mxCell>
        <mxCell id="FuYYxBFJ5jyNKKdTYedB-36" value="" style="endArrow=block;endSize=16;endFill=0;html=1;rounded=0;" parent="WIyWlLk6GJQsqaUBKTNV-1" source="FuYYxBFJ5jyNKKdTYedB-31" target="FuYYxBFJ5jyNKKdTYedB-7" edge="1">
          <mxGeometry width="160" relative="1" as="geometry">
            <mxPoint x="-41" y="940" as="sourcePoint" />
            <mxPoint x="119" y="940" as="targetPoint" />
          </mxGeometry>
        </mxCell>
        <mxCell id="FuYYxBFJ5jyNKKdTYedB-37" value="" style="endArrow=diamondThin;endFill=0;endSize=24;html=1;rounded=0;" parent="WIyWlLk6GJQsqaUBKTNV-1" source="FuYYxBFJ5jyNKKdTYedB-45" target="FuYYxBFJ5jyNKKdTYedB-49" edge="1">
          <mxGeometry width="160" relative="1" as="geometry">
            <mxPoint x="-540" y="630" as="sourcePoint" />
            <mxPoint x="-380" y="630" as="targetPoint" />
          </mxGeometry>
        </mxCell>
        <mxCell id="Uktwysg2pO_e4_kTqGVh-15" value="1" style="edgeLabel;html=1;align=center;verticalAlign=middle;resizable=0;points=[];" parent="FuYYxBFJ5jyNKKdTYedB-37" vertex="1" connectable="0">
          <mxGeometry x="0.6865" y="1" relative="1" as="geometry">
            <mxPoint y="13" as="offset" />
          </mxGeometry>
        </mxCell>
        <mxCell id="Uktwysg2pO_e4_kTqGVh-19" value="1" style="edgeLabel;html=1;align=center;verticalAlign=middle;resizable=0;points=[];" parent="FuYYxBFJ5jyNKKdTYedB-37" vertex="1" connectable="0">
          <mxGeometry x="-0.8644" y="1" relative="1" as="geometry">
            <mxPoint x="-3" as="offset" />
          </mxGeometry>
        </mxCell>
        <mxCell id="FuYYxBFJ5jyNKKdTYedB-38" value="" style="endArrow=diamondThin;endFill=0;endSize=24;html=1;rounded=0;" parent="WIyWlLk6GJQsqaUBKTNV-1" source="FuYYxBFJ5jyNKKdTYedB-33" target="FuYYxBFJ5jyNKKdTYedB-3" edge="1">
          <mxGeometry width="160" relative="1" as="geometry">
            <mxPoint x="130" y="770" as="sourcePoint" />
            <mxPoint x="290" y="770" as="targetPoint" />
          </mxGeometry>
        </mxCell>
        <mxCell id="Uktwysg2pO_e4_kTqGVh-30" value="*" style="edgeLabel;html=1;align=center;verticalAlign=middle;resizable=0;points=[];" parent="FuYYxBFJ5jyNKKdTYedB-38" vertex="1" connectable="0">
          <mxGeometry x="0.6303" relative="1" as="geometry">
            <mxPoint x="10" as="offset" />
          </mxGeometry>
        </mxCell>
        <mxCell id="Uktwysg2pO_e4_kTqGVh-31" value="1" style="edgeLabel;html=1;align=center;verticalAlign=middle;resizable=0;points=[];" parent="FuYYxBFJ5jyNKKdTYedB-38" vertex="1" connectable="0">
          <mxGeometry x="-0.916" relative="1" as="geometry">
            <mxPoint as="offset" />
          </mxGeometry>
        </mxCell>
        <mxCell id="FuYYxBFJ5jyNKKdTYedB-39" value="" style="endArrow=diamondThin;endFill=0;endSize=24;html=1;rounded=0;" parent="WIyWlLk6GJQsqaUBKTNV-1" source="FuYYxBFJ5jyNKKdTYedB-32" target="FuYYxBFJ5jyNKKdTYedB-2" edge="1">
          <mxGeometry width="160" relative="1" as="geometry">
            <mxPoint x="140" y="780" as="sourcePoint" />
            <mxPoint x="300" y="780" as="targetPoint" />
          </mxGeometry>
        </mxCell>
        <mxCell id="Uktwysg2pO_e4_kTqGVh-27" value="*" style="edgeLabel;html=1;align=center;verticalAlign=middle;resizable=0;points=[];" parent="FuYYxBFJ5jyNKKdTYedB-39" vertex="1" connectable="0">
          <mxGeometry x="0.7662" relative="1" as="geometry">
            <mxPoint y="-10" as="offset" />
          </mxGeometry>
        </mxCell>
        <mxCell id="Uktwysg2pO_e4_kTqGVh-35" value="1" style="edgeLabel;html=1;align=center;verticalAlign=middle;resizable=0;points=[];" parent="FuYYxBFJ5jyNKKdTYedB-39" vertex="1" connectable="0">
          <mxGeometry x="-0.9443" y="1" relative="1" as="geometry">
            <mxPoint y="-4" as="offset" />
          </mxGeometry>
        </mxCell>
        <mxCell id="FuYYxBFJ5jyNKKdTYedB-40" value="Baza listy" style="html=1;whiteSpace=wrap;" parent="WIyWlLk6GJQsqaUBKTNV-1" vertex="1">
          <mxGeometry x="80" y="550" width="120" height="40" as="geometry" />
        </mxCell>
        <mxCell id="FuYYxBFJ5jyNKKdTYedB-41" value="" style="endArrow=block;endSize=16;endFill=0;html=1;rounded=0;" parent="WIyWlLk6GJQsqaUBKTNV-1" source="FuYYxBFJ5jyNKKdTYedB-40" target="FuYYxBFJ5jyNKKdTYedB-7" edge="1">
          <mxGeometry width="160" relative="1" as="geometry">
            <mxPoint x="-61" y="920" as="sourcePoint" />
            <mxPoint x="145" y="610" as="targetPoint" />
          </mxGeometry>
        </mxCell>
        <mxCell id="FuYYxBFJ5jyNKKdTYedB-42" value="" style="endArrow=diamondThin;endFill=0;endSize=24;html=1;rounded=0;" parent="WIyWlLk6GJQsqaUBKTNV-1" source="FuYYxBFJ5jyNKKdTYedB-31" target="FuYYxBFJ5jyNKKdTYedB-5" edge="1">
          <mxGeometry width="160" relative="1" as="geometry">
            <mxPoint x="614" y="530" as="sourcePoint" />
            <mxPoint x="506" y="330" as="targetPoint" />
          </mxGeometry>
        </mxCell>
        <mxCell id="Uktwysg2pO_e4_kTqGVh-37" value="1" style="edgeLabel;html=1;align=center;verticalAlign=middle;resizable=0;points=[];" parent="FuYYxBFJ5jyNKKdTYedB-42" vertex="1" connectable="0">
          <mxGeometry x="-0.9179" y="-1" relative="1" as="geometry">
            <mxPoint x="-5" y="-4" as="offset" />
          </mxGeometry>
        </mxCell>
        <mxCell id="Uktwysg2pO_e4_kTqGVh-40" value="*" style="edgeLabel;html=1;align=center;verticalAlign=middle;resizable=0;points=[];" parent="FuYYxBFJ5jyNKKdTYedB-42" vertex="1" connectable="0">
          <mxGeometry x="0.7782" relative="1" as="geometry">
            <mxPoint y="-9" as="offset" />
          </mxGeometry>
        </mxCell>
        <mxCell id="FuYYxBFJ5jyNKKdTYedB-43" value="" style="endArrow=diamondThin;endFill=0;endSize=24;html=1;rounded=0;" parent="WIyWlLk6GJQsqaUBKTNV-1" source="FuYYxBFJ5jyNKKdTYedB-33" target="FuYYxBFJ5jyNKKdTYedB-4" edge="1">
          <mxGeometry width="160" relative="1" as="geometry">
            <mxPoint x="506" y="530" as="sourcePoint" />
            <mxPoint x="614" y="330" as="targetPoint" />
          </mxGeometry>
        </mxCell>
        <mxCell id="Uktwysg2pO_e4_kTqGVh-32" value="1" style="edgeLabel;html=1;align=center;verticalAlign=middle;resizable=0;points=[];" parent="FuYYxBFJ5jyNKKdTYedB-43" vertex="1" connectable="0">
          <mxGeometry x="-0.9358" relative="1" as="geometry">
            <mxPoint x="-2" y="-4" as="offset" />
          </mxGeometry>
        </mxCell>
        <mxCell id="Uktwysg2pO_e4_kTqGVh-41" value="*" style="edgeLabel;html=1;align=center;verticalAlign=middle;resizable=0;points=[];" parent="FuYYxBFJ5jyNKKdTYedB-43" vertex="1" connectable="0">
          <mxGeometry x="0.7786" y="-1" relative="1" as="geometry">
            <mxPoint y="-10" as="offset" />
          </mxGeometry>
        </mxCell>
        <mxCell id="FuYYxBFJ5jyNKKdTYedB-44" value="Aplikacja pracownika" style="html=1;whiteSpace=wrap;" parent="WIyWlLk6GJQsqaUBKTNV-1" vertex="1">
          <mxGeometry x="-180" y="160" width="120" height="40" as="geometry" />
        </mxCell>
        <mxCell id="FuYYxBFJ5jyNKKdTYedB-45" value="Aplikacja admina" style="html=1;whiteSpace=wrap;" parent="WIyWlLk6GJQsqaUBKTNV-1" vertex="1">
          <mxGeometry x="-700" y="160" width="120" height="40" as="geometry" />
        </mxCell>
        <mxCell id="FuYYxBFJ5jyNKKdTYedB-48" value="Okno główne pracownika" style="html=1;whiteSpace=wrap;" parent="WIyWlLk6GJQsqaUBKTNV-1" vertex="1">
          <mxGeometry x="-180" y="340" width="120" height="40" as="geometry" />
        </mxCell>
        <mxCell id="FuYYxBFJ5jyNKKdTYedB-49" value="Okno zgłoszeń" style="html=1;whiteSpace=wrap;" parent="WIyWlLk6GJQsqaUBKTNV-1" vertex="1">
          <mxGeometry x="-440" y="340" width="120" height="40" as="geometry" />
        </mxCell>
        <mxCell id="FuYYxBFJ5jyNKKdTYedB-50" value="Okno użytkowników" style="html=1;whiteSpace=wrap;" parent="WIyWlLk6GJQsqaUBKTNV-1" vertex="1">
          <mxGeometry x="-700" y="340" width="120" height="40" as="geometry" />
        </mxCell>
        <mxCell id="FuYYxBFJ5jyNKKdTYedB-54" value="" style="endArrow=block;endSize=16;endFill=0;html=1;rounded=0;" parent="WIyWlLk6GJQsqaUBKTNV-1" source="FuYYxBFJ5jyNKKdTYedB-51" target="FuYYxBFJ5jyNKKdTYedB-1" edge="1">
          <mxGeometry width="160" relative="1" as="geometry">
            <mxPoint x="-180" y="170" as="sourcePoint" />
            <mxPoint x="-370" y="330" as="targetPoint" />
          </mxGeometry>
        </mxCell>
        <mxCell id="FuYYxBFJ5jyNKKdTYedB-55" value="" style="endArrow=block;endSize=16;endFill=0;html=1;rounded=0;" parent="WIyWlLk6GJQsqaUBKTNV-1" source="FuYYxBFJ5jyNKKdTYedB-48" target="FuYYxBFJ5jyNKKdTYedB-1" edge="1">
          <mxGeometry width="160" relative="1" as="geometry">
            <mxPoint x="-577" y="410" as="sourcePoint" />
            <mxPoint x="-533" y="340" as="targetPoint" />
          </mxGeometry>
        </mxCell>
        <mxCell id="FuYYxBFJ5jyNKKdTYedB-57" value="" style="endArrow=block;endSize=16;endFill=0;html=1;rounded=0;" parent="WIyWlLk6GJQsqaUBKTNV-1" source="FuYYxBFJ5jyNKKdTYedB-50" target="FuYYxBFJ5jyNKKdTYedB-1" edge="1">
          <mxGeometry width="160" relative="1" as="geometry">
            <mxPoint x="-557" y="430" as="sourcePoint" />
            <mxPoint x="-513" y="360" as="targetPoint" />
          </mxGeometry>
        </mxCell>
        <mxCell id="FuYYxBFJ5jyNKKdTYedB-58" value="" style="endArrow=block;endSize=16;endFill=0;html=1;rounded=0;" parent="WIyWlLk6GJQsqaUBKTNV-1" source="FuYYxBFJ5jyNKKdTYedB-3" target="FuYYxBFJ5jyNKKdTYedB-1" edge="1">
          <mxGeometry width="160" relative="1" as="geometry">
            <mxPoint x="-201" y="390" as="sourcePoint" />
            <mxPoint x="-179" y="340" as="targetPoint" />
          </mxGeometry>
        </mxCell>
        <mxCell id="FuYYxBFJ5jyNKKdTYedB-62" value="" style="endArrow=block;endSize=16;endFill=0;html=1;rounded=0;" parent="WIyWlLk6GJQsqaUBKTNV-1" source="FuYYxBFJ5jyNKKdTYedB-49" target="FuYYxBFJ5jyNKKdTYedB-1" edge="1">
          <mxGeometry width="160" relative="1" as="geometry">
            <mxPoint x="-512" y="545" as="sourcePoint" />
            <mxPoint x="-528" y="330" as="targetPoint" />
          </mxGeometry>
        </mxCell>
        <mxCell id="FuYYxBFJ5jyNKKdTYedB-51" value="Okno wydarzeń" style="html=1;whiteSpace=wrap;" parent="WIyWlLk6GJQsqaUBKTNV-1" vertex="1">
          <mxGeometry x="-570" y="340" width="120" height="40" as="geometry" />
        </mxCell>
        <mxCell id="FuYYxBFJ5jyNKKdTYedB-64" value="" style="endArrow=diamondThin;endFill=0;endSize=24;html=1;rounded=0;" parent="WIyWlLk6GJQsqaUBKTNV-1" source="FuYYxBFJ5jyNKKdTYedB-44" target="FuYYxBFJ5jyNKKdTYedB-48" edge="1">
          <mxGeometry width="160" relative="1" as="geometry">
            <mxPoint x="-530" y="640" as="sourcePoint" />
            <mxPoint x="-370" y="640" as="targetPoint" />
          </mxGeometry>
        </mxCell>
        <mxCell id="Uktwysg2pO_e4_kTqGVh-21" value="1" style="edgeLabel;html=1;align=center;verticalAlign=middle;resizable=0;points=[];" parent="FuYYxBFJ5jyNKKdTYedB-64" vertex="1" connectable="0">
          <mxGeometry x="0.5714" relative="1" as="geometry">
            <mxPoint x="10" y="20" as="offset" />
          </mxGeometry>
        </mxCell>
        <mxCell id="Uktwysg2pO_e4_kTqGVh-23" value="1" style="edgeLabel;html=1;align=center;verticalAlign=middle;resizable=0;points=[];" parent="FuYYxBFJ5jyNKKdTYedB-64" vertex="1" connectable="0">
          <mxGeometry x="-0.8707" relative="1" as="geometry">
            <mxPoint x="10" as="offset" />
          </mxGeometry>
        </mxCell>
        <mxCell id="FuYYxBFJ5jyNKKdTYedB-65" value="" style="endArrow=diamondThin;endFill=0;endSize=24;html=1;rounded=0;" parent="WIyWlLk6GJQsqaUBKTNV-1" source="FuYYxBFJ5jyNKKdTYedB-45" target="FuYYxBFJ5jyNKKdTYedB-51" edge="1">
          <mxGeometry width="160" relative="1" as="geometry">
            <mxPoint x="-520" y="650" as="sourcePoint" />
            <mxPoint x="-360" y="650" as="targetPoint" />
          </mxGeometry>
        </mxCell>
        <mxCell id="Uktwysg2pO_e4_kTqGVh-14" value="1" style="edgeLabel;html=1;align=center;verticalAlign=middle;resizable=0;points=[];" parent="FuYYxBFJ5jyNKKdTYedB-65" vertex="1" connectable="0">
          <mxGeometry x="0.6154" relative="1" as="geometry">
            <mxPoint y="17" as="offset" />
          </mxGeometry>
        </mxCell>
        <mxCell id="Uktwysg2pO_e4_kTqGVh-18" value="1" style="edgeLabel;html=1;align=center;verticalAlign=middle;resizable=0;points=[];" parent="FuYYxBFJ5jyNKKdTYedB-65" vertex="1" connectable="0">
          <mxGeometry x="-0.8706" relative="1" as="geometry">
            <mxPoint x="-1" as="offset" />
          </mxGeometry>
        </mxCell>
        <mxCell id="FuYYxBFJ5jyNKKdTYedB-66" value="" style="endArrow=diamondThin;endFill=0;endSize=24;html=1;rounded=0;" parent="WIyWlLk6GJQsqaUBKTNV-1" source="FuYYxBFJ5jyNKKdTYedB-45" target="FuYYxBFJ5jyNKKdTYedB-3" edge="1">
          <mxGeometry width="160" relative="1" as="geometry">
            <mxPoint x="-510" y="660" as="sourcePoint" />
            <mxPoint x="-350" y="660" as="targetPoint" />
          </mxGeometry>
        </mxCell>
        <mxCell id="Uktwysg2pO_e4_kTqGVh-16" value="1" style="edgeLabel;html=1;align=center;verticalAlign=middle;resizable=0;points=[];" parent="FuYYxBFJ5jyNKKdTYedB-66" vertex="1" connectable="0">
          <mxGeometry x="0.7681" relative="1" as="geometry">
            <mxPoint x="18" y="-4" as="offset" />
          </mxGeometry>
        </mxCell>
        <mxCell id="Uktwysg2pO_e4_kTqGVh-20" value="1" style="edgeLabel;html=1;align=center;verticalAlign=middle;resizable=0;points=[];" parent="FuYYxBFJ5jyNKKdTYedB-66" vertex="1" connectable="0">
          <mxGeometry x="-0.8468" y="-1" relative="1" as="geometry">
            <mxPoint y="-2" as="offset" />
          </mxGeometry>
        </mxCell>
        <mxCell id="FuYYxBFJ5jyNKKdTYedB-67" value="" style="endArrow=diamondThin;endFill=0;endSize=24;html=1;rounded=0;" parent="WIyWlLk6GJQsqaUBKTNV-1" source="FuYYxBFJ5jyNKKdTYedB-44" target="FuYYxBFJ5jyNKKdTYedB-3" edge="1">
          <mxGeometry width="160" relative="1" as="geometry">
            <mxPoint x="-500" y="670" as="sourcePoint" />
            <mxPoint x="-340" y="670" as="targetPoint" />
          </mxGeometry>
        </mxCell>
        <mxCell id="Uktwysg2pO_e4_kTqGVh-22" value="1" style="edgeLabel;html=1;align=center;verticalAlign=middle;resizable=0;points=[];" parent="FuYYxBFJ5jyNKKdTYedB-67" vertex="1" connectable="0">
          <mxGeometry x="0.6423" relative="1" as="geometry">
            <mxPoint y="15" as="offset" />
          </mxGeometry>
        </mxCell>
        <mxCell id="Uktwysg2pO_e4_kTqGVh-24" value="1" style="edgeLabel;html=1;align=center;verticalAlign=middle;resizable=0;points=[];" parent="FuYYxBFJ5jyNKKdTYedB-67" vertex="1" connectable="0">
          <mxGeometry x="-0.8546" y="1" relative="1" as="geometry">
            <mxPoint x="-9" as="offset" />
          </mxGeometry>
        </mxCell>
        <mxCell id="FuYYxBFJ5jyNKKdTYedB-68" value="" style="endArrow=diamondThin;endFill=0;endSize=24;html=1;rounded=0;" parent="WIyWlLk6GJQsqaUBKTNV-1" source="FuYYxBFJ5jyNKKdTYedB-45" target="FuYYxBFJ5jyNKKdTYedB-50" edge="1">
          <mxGeometry width="160" relative="1" as="geometry">
            <mxPoint x="-500" y="670" as="sourcePoint" />
            <mxPoint x="-340" y="670" as="targetPoint" />
          </mxGeometry>
        </mxCell>
        <mxCell id="Uktwysg2pO_e4_kTqGVh-13" value="1" style="edgeLabel;html=1;align=center;verticalAlign=middle;resizable=0;points=[];" parent="FuYYxBFJ5jyNKKdTYedB-68" vertex="1" connectable="0">
          <mxGeometry x="0.5442" relative="1" as="geometry">
            <mxPoint x="10" y="22" as="offset" />
          </mxGeometry>
        </mxCell>
        <mxCell id="Uktwysg2pO_e4_kTqGVh-17" value="1" style="edgeLabel;html=1;align=center;verticalAlign=middle;resizable=0;points=[];" parent="FuYYxBFJ5jyNKKdTYedB-68" vertex="1" connectable="0">
          <mxGeometry x="-0.8776" relative="1" as="geometry">
            <mxPoint as="offset" />
          </mxGeometry>
        </mxCell>
        <mxCell id="FuYYxBFJ5jyNKKdTYedB-69" value="" style="endArrow=diamondThin;endFill=0;endSize=24;html=1;rounded=0;" parent="WIyWlLk6GJQsqaUBKTNV-1" source="FuYYxBFJ5jyNKKdTYedB-32" target="FuYYxBFJ5jyNKKdTYedB-51" edge="1">
          <mxGeometry width="160" relative="1" as="geometry">
            <mxPoint x="140" y="780" as="sourcePoint" />
            <mxPoint x="300" y="780" as="targetPoint" />
          </mxGeometry>
        </mxCell>
        <mxCell id="Uktwysg2pO_e4_kTqGVh-26" value="1" style="edgeLabel;html=1;align=center;verticalAlign=middle;resizable=0;points=[];" parent="FuYYxBFJ5jyNKKdTYedB-69" vertex="1" connectable="0">
          <mxGeometry x="0.8143" relative="1" as="geometry">
            <mxPoint x="-7" y="4" as="offset" />
          </mxGeometry>
        </mxCell>
        <mxCell id="Uktwysg2pO_e4_kTqGVh-33" value="1" style="edgeLabel;html=1;align=center;verticalAlign=middle;resizable=0;points=[];" parent="FuYYxBFJ5jyNKKdTYedB-69" vertex="1" connectable="0">
          <mxGeometry x="-0.9312" y="-1" relative="1" as="geometry">
            <mxPoint x="-2" as="offset" />
          </mxGeometry>
        </mxCell>
        <mxCell id="FuYYxBFJ5jyNKKdTYedB-70" value="" style="endArrow=diamondThin;endFill=0;endSize=24;html=1;rounded=0;" parent="WIyWlLk6GJQsqaUBKTNV-1" source="FuYYxBFJ5jyNKKdTYedB-33" target="FuYYxBFJ5jyNKKdTYedB-50" edge="1">
          <mxGeometry width="160" relative="1" as="geometry">
            <mxPoint x="150" y="790" as="sourcePoint" />
            <mxPoint x="310" y="790" as="targetPoint" />
          </mxGeometry>
        </mxCell>
        <mxCell id="Uktwysg2pO_e4_kTqGVh-10" value="1" style="edgeLabel;html=1;align=center;verticalAlign=middle;resizable=0;points=[];" parent="FuYYxBFJ5jyNKKdTYedB-70" vertex="1" connectable="0">
          <mxGeometry x="-0.924" y="-1" relative="1" as="geometry">
            <mxPoint x="-1" as="offset" />
          </mxGeometry>
        </mxCell>
        <mxCell id="Uktwysg2pO_e4_kTqGVh-29" value="1" style="edgeLabel;html=1;align=center;verticalAlign=middle;resizable=0;points=[];" parent="FuYYxBFJ5jyNKKdTYedB-70" vertex="1" connectable="0">
          <mxGeometry x="0.8085" y="-1" relative="1" as="geometry">
            <mxPoint x="-8" y="5" as="offset" />
          </mxGeometry>
        </mxCell>
        <mxCell id="FuYYxBFJ5jyNKKdTYedB-73" value="" style="endArrow=diamondThin;endFill=0;endSize=24;html=1;rounded=0;" parent="WIyWlLk6GJQsqaUBKTNV-1" source="FuYYxBFJ5jyNKKdTYedB-32" target="FuYYxBFJ5jyNKKdTYedB-48" edge="1">
          <mxGeometry width="160" relative="1" as="geometry">
            <mxPoint x="180" y="820" as="sourcePoint" />
            <mxPoint x="340" y="820" as="targetPoint" />
          </mxGeometry>
        </mxCell>
        <mxCell id="Uktwysg2pO_e4_kTqGVh-25" value="*" style="edgeLabel;html=1;align=center;verticalAlign=middle;resizable=0;points=[];" parent="FuYYxBFJ5jyNKKdTYedB-73" vertex="1" connectable="0">
          <mxGeometry x="0.6415" relative="1" as="geometry">
            <mxPoint x="-10" as="offset" />
          </mxGeometry>
        </mxCell>
        <mxCell id="Uktwysg2pO_e4_kTqGVh-34" value="1" style="edgeLabel;html=1;align=center;verticalAlign=middle;resizable=0;points=[];" parent="FuYYxBFJ5jyNKKdTYedB-73" vertex="1" connectable="0">
          <mxGeometry x="-0.916" relative="1" as="geometry">
            <mxPoint as="offset" />
          </mxGeometry>
        </mxCell>
        <mxCell id="FuYYxBFJ5jyNKKdTYedB-74" value="" style="endArrow=diamondThin;endFill=0;endSize=24;html=1;rounded=0;" parent="WIyWlLk6GJQsqaUBKTNV-1" source="FuYYxBFJ5jyNKKdTYedB-31" target="FuYYxBFJ5jyNKKdTYedB-49" edge="1">
          <mxGeometry width="160" relative="1" as="geometry">
            <mxPoint x="150" y="790" as="sourcePoint" />
            <mxPoint x="310" y="790" as="targetPoint" />
          </mxGeometry>
        </mxCell>
        <mxCell id="Uktwysg2pO_e4_kTqGVh-28" value="1" style="edgeLabel;html=1;align=center;verticalAlign=middle;resizable=0;points=[];" parent="FuYYxBFJ5jyNKKdTYedB-74" vertex="1" connectable="0">
          <mxGeometry x="0.8035" y="1" relative="1" as="geometry">
            <mxPoint x="-8" y="2" as="offset" />
          </mxGeometry>
        </mxCell>
        <mxCell id="Uktwysg2pO_e4_kTqGVh-36" value="1" style="edgeLabel;html=1;align=center;verticalAlign=middle;resizable=0;points=[];" parent="FuYYxBFJ5jyNKKdTYedB-74" vertex="1" connectable="0">
          <mxGeometry x="-0.916" y="1" relative="1" as="geometry">
            <mxPoint x="11" as="offset" />
          </mxGeometry>
        </mxCell>
      </root>
    </mxGraphModel>
  </diagram>
</mxfile>
